<svg xmlns="http://www.w3.org/2000/svg" version="1.1" xmlns:xlink="http://www.w3.org/1999/xlink" width="1000" height="1000"><g clip-path="url(#SvgjsClipPath1212)"><rect width="1000" height="1000" fill="#ffffff"></rect><g transform="matrix(17.039645696351,0,0,17.039645696351,100,100)"><svg xmlns="http://www.w3.org/2000/svg" version="1.1" xmlns:xlink="http://www.w3.org/1999/xlink" width="46.949333" height="46.949333"><svg version="1.1" id="svg2" xml:space="preserve" width="46.949333" height="46.949333" viewBox="0 0 46.949333 46.949333" sodipodi:docname="planarmatch.pdf" xmlns:inkscape="http://www.inkscape.org/namespaces/inkscape" xmlns:sodipodi="http://sodipodi.sourceforge.net/DTD/sodipodi-0.dtd" xmlns="http://www.w3.org/2000/svg" xmlns:svg="http://www.w3.org/2000/svg"><defs id="defs6"><clipPath id="SvgjsClipPath1212"><rect width="1000" height="1000" x="0" y="0" rx="300" ry="300"></rect></clipPath></defs><sodipodi:namedview id="namedview4" pagecolor="#ffffff" bordercolor="#666666" borderopacity="1.0" inkscape:pageshadow="2" inkscape:pageopacity="0.0" inkscape:pagecheckerboard="0"></sodipodi:namedview><g id="g8" inkscape:groupmode="layer" inkscape:label="planarmatch" transform="matrix(1.3333333,0,0,-1.3333333,0,46.949333)"><g id="g10" transform="translate(17.606,17.606)"><g id="g12"><g id="g14"><g id="g16"><path d="M 15.71295,6.50836 C 7.7084,3.19286 3.19286,7.7084 6.50836,15.71295" style="fill:none;stroke:#000000;stroke-width:0.79701;stroke-linecap:butt;stroke-linejoin:miter;stroke-miterlimit:10;stroke-dasharray:none;stroke-opacity:1" id="path18"></path></g><g id="g20"><path d="M -6.50836,15.71295 C -0.85835,2.07231 2.0775,-0.84663 15.71295,-6.50836" style="fill:none;stroke:#e62b4f;stroke-width:0.79701;stroke-linecap:butt;stroke-linejoin:miter;stroke-miterlimit:10;stroke-dasharray:none;stroke-opacity:1" id="path22"></path></g><g id="g24"><path d="m -6.50836,-15.71295 c 3.30214,7.97223 9.71458,7.97223 13.01672,0" style="fill:none;stroke:#000000;stroke-width:0.79701;stroke-linecap:butt;stroke-linejoin:miter;stroke-miterlimit:10;stroke-dasharray:none;stroke-opacity:1" id="path26"></path></g><g id="g28"><path d="m -15.71295,6.50836 c 7.97223,-3.30214 7.97223,-9.71458 0,-13.01672" style="fill:none;stroke:#e62b4f;stroke-width:0.79701;stroke-linecap:butt;stroke-linejoin:miter;stroke-miterlimit:10;stroke-dasharray:none;stroke-opacity:1" id="path30"></path></g><g id="g32"><path d="M 17.00824,0 C 17.00824,9.39351 9.39351,17.00824 0,17.00824 -9.39351,17.00824 -17.00824,9.39351 -17.00824,0 c 0,-9.39351 7.61473,-17.00824 17.00824,-17.00824 9.39351,0 17.00824,7.61473 17.00824,17.00824 z" style="fill:none;stroke:#000000;stroke-width:1.19553;stroke-linecap:butt;stroke-linejoin:miter;stroke-miterlimit:10;stroke-dasharray:none;stroke-opacity:1" id="path34"></path></g></g></g></g></g></svg></svg></g></g></svg>